<?xml version="1.0" encoding="utf-8"?>
<svg xmlns="http://www.w3.org/2000/svg" id="Layer_1" viewBox="0 0 24 24">
<defs>
<style>.cls-2{fill:none;stroke:#000;stroke-miterlimit:10}</style>
</defs>
<rect x="4.93" y="2" width="14.14" height="20" rx="1" stroke-width="2" fill="none" stroke="#000" stroke-miterlimit="10"/>
<path d="M10.93 4.73a2.81 2.81 0 0 1 .88.51l-.71.87a2 2 0 0 0-1.25-.46 1.22 1.22 0 0 0-1 .54 2.8 2.8 0 0 0-.39 1.63 2.72 2.72 0 0 0 .39 1.62 1.25 1.25 0 0 0 1.03.56 1.55 1.55 0 0 0 .71-.15 3.23 3.23 0 0 0 .64-.41l.67.85a2.8 2.8 0 0 1-2.1.85 3 3 0 0 1-1.51-.38 2.65 2.65 0 0 1-1-1.12 3.91 3.91 0 0 1-.39-1.82 3.83 3.83 0 0 1 .38-1.75 2.71 2.71 0 0 1 1-1.13 3 3 0 0 1 1.5-.38 3.09 3.09 0 0 1 1.15.17zM14.72 9.8l1.17-5.08h1.52L15.61 11h-1.82L12 4.72h1.56z"/>
<path class="cls-2" d="M6.88 13.88h10.24M6.88 15.76h10.24M6.88 17.63h10.24M6.88 19.51h10.24"/>
</svg>
