<svg version="1" xmlns="http://www.w3.org/2000/svg" width="933.333" height="933.333" viewBox="0 0 700.000000 700.000000"><path d="M322.7 75.6c-.1.1-7.2.5-15.7.8-8.5.4-16.8.9-18.5 1.1-1.6.2-6.4.7-10.5 1-4.1.4-8.2.9-9 1-.8.1-4 .6-7 1-14.6 1.8-43.6 7.6-58 11.5-15.4 4.3-20.5 6.4-20.4 8.7.2 3.1 1.5 12.7 1.9 14.3.2.8.7 4 1 7 .3 3 .8 6.6 1.1 8 .2 1.4.6 4.1.9 6 .2 1.9.7 5.3 1 7.5.4 2.2.8 5.1 1 6.5.2 1.4 1.1 7.9 2 14.5 1 6.6 1.8 12.1 1.9 12.3.2.1 2.9-.7 6.2-1.8 15-5.2 48.2-12.5 65.9-14.5 22.3-2.5 29.3-2.9 54.5-2.9 27.4-.1 33.9.4 47.7 3.5 7 1.5 20.1 6.6 26.9 10.4 6.8 3.8 19.5 13.6 22.9 17.6 13.6 16.1 20.4 30.6 24.9 53.2 3.2 16.1 3.8 22.3 4.1 46.4.2 17.2 0 20.3-1.2 20.3-.8 0-5.8-.9-11.1-2-5.4-1-10.8-2.1-12.2-2.4-1.4-.2-6.1-1.2-10.5-2-14.1-2.7-22.9-3.9-37.7-5.2-14.9-1.3-48.5-.8-64.3 1-1.6.2-5.9.7-9.5 1.1-5.6.6-28.3 4.5-34.5 5.9-54.8 12.3-93.7 36.9-117.4 74.4-13.4 21.1-20.2 47.3-20.4 77.7-.1 14.5.8 33.9 1.7 35.4.2.3.7 2.8 1 5.6 2.1 15.4 9.8 37.1 18.8 52.5 8.8 15.1 25.9 33 41.3 43.1 9.1 6 20.6 12.1 31 16.4 9.8 4.1 33.1 10.8 41.6 12 2.4.3 5.1.8 5.9 1 .8.2 3.2.6 5.3.9 2 .3 5.2.8 7 1.1 24.1 3.6 75.4 4.1 113.7 1 4.7-.4 19.8-1.7 23.5-2.1 1.7-.1 6.4-.5 10.5-.9 4.1-.3 8.6-.8 10-1 1.4-.2 5.7-.6 9.5-.9 6.4-.6 10.5-1.1 17.5-2.1 1.4-.2 5-.7 8-1 5.5-.6 25.3-3.2 30-4.1 1.4-.2 9.8-1.6 18.8-3.1 14.8-2.4 16.2-2.8 16.3-4.7 0-1.2.1-77.7.1-170.1 0-152-.2-184.6-1.7-194-.3-1.7-.7-5.3-1-8-.6-5.7-1.8-13.2-4.1-24.3-3-15-7.8-29.2-14.6-43.2-20.6-42.6-55.2-69.5-106.6-83-4-1-9.1-2.2-11.4-2.5-2.4-.4-4.5-.8-4.9-1-.3-.2-4.6-.9-9.5-1.5-4.9-.7-10-1.3-11.4-1.5-7.1-1-51.5-2.6-52.3-1.9zM382 373.4c8.5.3 16.6.7 18 1 1.4.3 5.2.7 8.5 1 10 1 26.6 4.5 34.1 7.4l4.9 1.8v157.8l-2.7.7c-3.1.8-22.8 3.6-30.8 4.3-26.2 2.4-99 2.5-102.9.1-.3-.1-2.8-.6-5.6-.9-5.7-.8-24-5.2-27-6.5-1.1-.5-4-1.7-6.5-2.6-17-6.3-31.8-19.1-38.8-33.5-6.3-12.8-8.3-21.7-8.8-40-.5-19.6 1-28.1 7.4-40.5 8-15.7 25.5-30.2 46.4-38.6 7.7-3.1 23.5-7.6 29.3-8.3 2.8-.4 6.8-.9 9-1.2 6.8-1 10.5-1.3 26-2 8.3-.4 15.1-.8 15.3-.9.1-.1 2.1 0 4.5.1 2.3.2 11.2.5 19.7.8z"/></svg>