<?xml version="1.0" standalone="no"?>
<!DOCTYPE svg PUBLIC "-//W3C//DTD SVG 20010904//EN"
 "http://www.w3.org/TR/2001/REC-SVG-20010904/DTD/svg10.dtd">
<svg version="1.0" xmlns="http://www.w3.org/2000/svg"
 width="700.000000pt" height="700.000000pt" viewBox="0 0 700.000000 700.000000"
 preserveAspectRatio="xMidYMid meet">
<metadata>
Created by potrace 1.11, written by Peter Selinger 2001-2013
</metadata>
<g transform="translate(0.000000,700.000000) scale(0.100000,-0.100000)"
fill="#000000" stroke="none">
<path d="M3227 6244 c-1 -1 -72 -5 -157 -8 -85 -4 -168 -9 -185 -11 -16 -2
-64 -7 -105 -10 -41 -4 -82 -9 -90 -10 -8 -1 -40 -6 -70 -10 -146 -18 -436
-76 -580 -115 -154 -43 -205 -64 -204 -87 2 -31 15 -127 19 -143 2 -8 7 -40
10 -70 3 -30 8 -66 11 -80 2 -14 6 -41 9 -60 2 -19 7 -53 10 -75 4 -22 8 -51
10 -65 2 -14 11 -79 20 -145 10 -66 18 -121 19 -123 2 -1 29 7 62 18 150 52
482 125 659 145 223 25 293 29 545 29 274 1 339 -4 477 -35 70 -15 201 -66
269 -104 68 -38 195 -136 229 -176 136 -161 204 -306 249 -532 32 -161 38
-223 41 -464 2 -172 0 -203 -12 -203 -8 0 -58 9 -111 20 -54 10 -108 21 -122
24 -14 2 -61 12 -105 20 -141 27 -229 39 -377 52 -149 13 -485 8 -643 -10 -16
-2 -59 -7 -95 -11 -56 -6 -283 -45 -345 -59 -548 -123 -937 -369 -1174 -744
-134 -211 -202 -473 -204 -777 -1 -145 8 -339 17 -354 2 -3 7 -28 10 -56 21
-154 98 -371 188 -525 88 -151 259 -330 413 -431 91 -60 206 -121 310 -164 98
-41 331 -108 416 -120 24 -3 51 -8 59 -10 8 -2 32 -6 53 -9 20 -3 52 -8 70
-11 241 -36 754 -41 1137 -10 47 4 198 17 235 21 17 1 64 5 105 9 41 3 86 8
100 10 14 2 57 6 95 9 64 6 105 11 175 21 14 2 50 7 80 10 55 6 253 32 300 41
14 2 98 16 188 31 148 24 162 28 163 47 0 12 1 777 1 1701 0 1520 -2 1846 -17
1940 -3 17 -7 53 -10 80 -6 57 -18 132 -41 243 -30 150 -78 292 -146 432 -206
426 -552 695 -1066 830 -40 10 -91 22 -114 25 -24 4 -45 8 -49 10 -3 2 -46 9
-95 15 -49 7 -100 13 -114 15 -71 10 -515 26 -523 19z m593 -2978 c85 -3 166
-7 180 -10 14 -3 52 -7 85 -10 100 -10 266 -45 341 -74 l49 -18 0 -789 0 -789
-27 -7 c-31 -8 -228 -36 -308 -43 -262 -24 -990 -25 -1029 -1 -3 1 -28 6 -56
9 -57 8 -240 52 -270 65 -11 5 -40 17 -65 26 -170 63 -318 191 -388 335 -63
128 -83 217 -88 400 -5 196 10 281 74 405 80 157 255 302 464 386 77 31 235
76 293 83 28 4 68 9 90 12 68 10 105 13 260 20 83 4 151 8 153 9 1 1 21 0 45
-1 23 -2 112 -5 197 -8z"/>
</g>
</svg>
